<?xml version="1.0" ?>
<xmeml version="4">
    <project>
        <name>Untitled Sequence.04.Exported.01</name>
        <children>
            <sequence id="sequence-1">
                <name>Untitled Sequence.04.Exported.01</name>
                <duration>72</duration>
                <rate>
                    <timebase>25</timebase>
                    <ntsc>FALSE</ntsc>
                </rate>
                <media>
                    <video>
                        <format/>
                        <track>
                            <clipitem frameBlend="FALSE" id="clipitem-1">
                                <file id="file-1">
                                    <pathurl>file://C:/temp/1avid/sonyfx6.MXF</pathurl>
                                    <name>sonyfx6.MXF</name>
                                    <rate>
                                        <timebase>25</timebase>
                                        <ntsc>FALSE</ntsc>
                                    </rate>
                                    <duration>10800000</duration>
                                    <timecode>
                                        <rate>
                                            <timebase>25</timebase>
                                            <ntsc>FALSE</ntsc>
                                        </rate>
                                        <string>00:00:00:00</string>
                                        <frame>0</frame>
                                        <displayformat>NDF</displayformat>
                                    </timecode>
                                    <media>
                                        <video/>
                                        <audio/>
                                    </media>
                                </file>
                                <name>sonyfx6</name>
                                <rate>
                                    <timebase>25</timebase>
                                    <ntsc>FALSE</ntsc>
                                </rate>
                                <rate>
                                    <timebase>25</timebase>
                                    <ntsc>FALSE</ntsc>
                                </rate>
                                <duration>2</duration>
                                <start>68</start>
                                <end>70</end>
                                <in>0</in>
                                <out>2</out>
                            </clipitem>
                            <clipitem frameBlend="FALSE" id="clipitem-2">
                                <name>c:\.ffastrans_work_root\20250926-1442-2939-1afc-0db4cc07754a\20251016-1858-1183-22a3-37ccde208224\temp\FX6_EO0002</name>
                                <file id="file-2">
                                    <name/>
                                    <rate>
                                        <timebase>25</timebase>
                                        <ntsc>FALSE</ntsc>
                                    </rate>
                                    <duration>2</duration>
                                    <timecode>
                                        <rate>
                                            <timebase>25</timebase>
                                            <ntsc>FALSE</ntsc>
                                        </rate>
                                        <string>00:00:01:02</string>
                                        <frame>27</frame>
                                        <displayformat>NDF</displayformat>
                                    </timecode>
                                    <media>
                                        <video/>
                                    </media>
                                </file>
                                <rate>
                                    <timebase>25</timebase>
                                    <ntsc>FALSE</ntsc>
                                </rate>
                                <duration>2</duration>
                                <start>70</start>
                                <end>72</end>
                                <in>0</in>
                                <out>2</out>
                            </clipitem>
                        </track>
                    </video>
                    <audio>
                        <track>
                            <clipitem frameBlend="FALSE" id="clipitem-3">
                                <file id="file-1"/>
                                <name>sonyfx6</name>
                                <rate>
                                    <timebase>25</timebase>
                                    <ntsc>FALSE</ntsc>
                                </rate>
                                <rate>
                                    <timebase>25</timebase>
                                    <ntsc>FALSE</ntsc>
                                </rate>
                                <duration>2</duration>
                                <start>68</start>
                                <end>70</end>
                                <in>0</in>
                                <out>2</out>
                            </clipitem>
                            <clipitem frameBlend="FALSE" id="clipitem-4">
                                <name>c:\.ffastrans_work_root\20250926-1442-2939-1afc-0db4cc07754a\20251016-1858-1183-22a3-37ccde208224\temp\FX6_EO0002</name>
                                <file id="file-2"/>
                                <rate>
                                    <timebase>25</timebase>
                                    <ntsc>FALSE</ntsc>
                                </rate>
                                <duration>2</duration>
                                <start>70</start>
                                <end>72</end>
                                <in>0</in>
                                <out>2</out>
                            </clipitem>
                        </track>
                        <track>
                            <clipitem frameBlend="FALSE" id="clipitem-5">
                                <file id="file-1"/>
                                <name>sonyfx6</name>
                                <rate>
                                    <timebase>25</timebase>
                                    <ntsc>FALSE</ntsc>
                                </rate>
                                <rate>
                                    <timebase>25</timebase>
                                    <ntsc>FALSE</ntsc>
                                </rate>
                                <duration>2</duration>
                                <start>68</start>
                                <end>70</end>
                                <in>0</in>
                                <out>2</out>
                            </clipitem>
                            <clipitem frameBlend="FALSE" id="clipitem-6">
                                <name>c:\.ffastrans_work_root\20250926-1442-2939-1afc-0db4cc07754a\20251016-1858-1183-22a3-37ccde208224\temp\FX6_EO0002</name>
                                <file id="file-2"/>
                                <rate>
                                    <timebase>25</timebase>
                                    <ntsc>FALSE</ntsc>
                                </rate>
                                <duration>2</duration>
                                <start>70</start>
                                <end>72</end>
                                <in>0</in>
                                <out>2</out>
                            </clipitem>
                        </track>
                        <track>
                            <clipitem frameBlend="FALSE" id="clipitem-7">
                                <file id="file-1"/>
                                <name>sonyfx6</name>
                                <rate>
                                    <timebase>25</timebase>
                                    <ntsc>FALSE</ntsc>
                                </rate>
                                <rate>
                                    <timebase>25</timebase>
                                    <ntsc>FALSE</ntsc>
                                </rate>
                                <duration>2</duration>
                                <start>68</start>
                                <end>70</end>
                                <in>0</in>
                                <out>2</out>
                            </clipitem>
                            <clipitem frameBlend="FALSE" id="clipitem-8">
                                <name>c:\.ffastrans_work_root\20250926-1442-2939-1afc-0db4cc07754a\20251016-1858-1183-22a3-37ccde208224\temp\FX6_EO0002</name>
                                <file id="file-2"/>
                                <rate>
                                    <timebase>25</timebase>
                                    <ntsc>FALSE</ntsc>
                                </rate>
                                <duration>2</duration>
                                <start>70</start>
                                <end>72</end>
                                <in>0</in>
                                <out>2</out>
                            </clipitem>
                        </track>
                        <track>
                            <clipitem frameBlend="FALSE" id="clipitem-9">
                                <file id="file-1"/>
                                <name>sonyfx6</name>
                                <rate>
                                    <timebase>25</timebase>
                                    <ntsc>FALSE</ntsc>
                                </rate>
                                <rate>
                                    <timebase>25</timebase>
                                    <ntsc>FALSE</ntsc>
                                </rate>
                                <duration>2</duration>
                                <start>68</start>
                                <end>70</end>
                                <in>0</in>
                                <out>2</out>
                            </clipitem>
                            <clipitem frameBlend="FALSE" id="clipitem-10">
                                <name>c:\.ffastrans_work_root\20250926-1442-2939-1afc-0db4cc07754a\20251016-1858-1183-22a3-37ccde208224\temp\FX6_EO0002</name>
                                <file id="file-2"/>
                                <rate>
                                    <timebase>25</timebase>
                                    <ntsc>FALSE</ntsc>
                                </rate>
                                <duration>2</duration>
                                <start>70</start>
                                <end>72</end>
                                <in>0</in>
                                <out>2</out>
                            </clipitem>
                        </track>
                        <track>
                            <clipitem frameBlend="FALSE" id="clipitem-11">
                                <name>c:\.ffastrans_work_root\20250926-1442-2939-1afc-0db4cc07754a\20251016-1858-1183-22a3-37ccde208224\temp\FX6_EO0002</name>
                                <file id="file-2"/>
                                <rate>
                                    <timebase>25</timebase>
                                    <ntsc>FALSE</ntsc>
                                </rate>
                                <duration>2</duration>
                                <start>70</start>
                                <end>72</end>
                                <in>0</in>
                                <out>2</out>
                            </clipitem>
                        </track>
                        <track>
                            <clipitem frameBlend="FALSE" id="clipitem-12">
                                <name>c:\.ffastrans_work_root\20250926-1442-2939-1afc-0db4cc07754a\20251016-1858-1183-22a3-37ccde208224\temp\FX6_EO0002</name>
                                <file id="file-2"/>
                                <rate>
                                    <timebase>25</timebase>
                                    <ntsc>FALSE</ntsc>
                                </rate>
                                <duration>2</duration>
                                <start>70</start>
                                <end>72</end>
                                <in>0</in>
                                <out>2</out>
                            </clipitem>
                        </track>
                        <track>
                            <clipitem frameBlend="FALSE" id="clipitem-13">
                                <name>c:\.ffastrans_work_root\20250926-1442-2939-1afc-0db4cc07754a\20251016-1858-1183-22a3-37ccde208224\temp\FX6_EO0002</name>
                                <file id="file-2"/>
                                <rate>
                                    <timebase>25</timebase>
                                    <ntsc>FALSE</ntsc>
                                </rate>
                                <duration>2</duration>
                                <start>70</start>
                                <end>72</end>
                                <in>0</in>
                                <out>2</out>
                            </clipitem>
                        </track>
                        <track>
                            <clipitem frameBlend="FALSE" id="clipitem-14">
                                <name>c:\.ffastrans_work_root\20250926-1442-2939-1afc-0db4cc07754a\20251016-1858-1183-22a3-37ccde208224\temp\FX6_EO0002</name>
                                <file id="file-2"/>
                                <rate>
                                    <timebase>25</timebase>
                                    <ntsc>FALSE</ntsc>
                                </rate>
                                <duration>2</duration>
                                <start>70</start>
                                <end>72</end>
                                <in>0</in>
                                <out>2</out>
                            </clipitem>
                        </track>
                    </audio>
                </media>
                <timecode>
                    <rate>
                        <timebase>25</timebase>
                        <ntsc>FALSE</ntsc>
                    </rate>
                    <string>01:00:00:00</string>
                    <frame>90000</frame>
                    <displayformat>NDF</displayformat>
                </timecode>
            </sequence>
        </children>
    </project>
</xmeml>
